<svg aria-hidden="true" style="width:0;height:0;position:absolute;overflow:hidden" xmlns="http://www.w3.org/2000/svg"><defs><symbol id="drone-logo" viewBox="0 0 69 32"><path d="M34.354 6.07a5.78 5.78 0 0 0-3.887 1.514l2.849 2.848a1.706 1.706 0 0 1 1.034-.346h.004c.384 0 .742.124 1.038.346l2.849-2.848a5.75 5.75 0 0 0-3.885-1.514h-.001z"/><path d="M34.354 0a11.99 11.99 0 0 0-8.218 3.255l2.844 2.843c1.412-1.29 3.3-2.081 5.373-2.081s3.961.79 5.379 2.086l-.006-.006 2.844-2.843a11.947 11.947 0 0 0-8.214-3.255h-.004zm17.075 6.605v4.016h6.563v3.661H10.581v-3.661h6.563V6.605H.001v4.016h6.563V20.68l15.714 4.284v4.76h4.286V32h4.017v-2.277h7.411V32h4.017v-2.277h4.286v-4.759l15.714-4.284V10.621h6.563V6.605H51.429z"/></symbol><symbol id="menu" viewBox="0 0 38 32"><path d="M2.134-.003a2.067 2.067 0 0 0-1.507.66L.626.658a2.327 2.327 0 0 0-.625 1.59v.011-.001c0 .602.224 1.178.625 1.6.399.427.943.664 1.509.664h34.139a2.08 2.08 0 0 0 1.508-.661 2.34 2.34 0 0 0 .625-1.6c0-.602-.224-1.176-.625-1.6a2.07 2.07 0 0 0-1.508-.664H2.135zM0 15.838c0-.6.224-1.174.625-1.6a2.07 2.07 0 0 1 1.508-.661h34.139c.565 0 1.109.237 1.508.661.401.427.625 1.001.625 1.6 0 .602-.224 1.176-.625 1.6a2.068 2.068 0 0 1-1.508.661H2.133a2.067 2.067 0 0 1-1.507-.66l-.001-.001A2.327 2.327 0 0 1 0 15.848v-.011.001zm0 13.579c0-.6.224-1.176.625-1.6a2.07 2.07 0 0 1 1.508-.661h34.139c.565 0 1.109.237 1.508.661.401.425.625 1.001.625 1.6s-.224 1.174-.625 1.6a2.068 2.068 0 0 1-1.508.661H2.133a2.067 2.067 0 0 1-1.507-.66l-.001-.001A2.327 2.327 0 0 1 0 29.427v-.011.001z"/></symbol><symbol id="search" viewBox="0 0 32 32"><path d="m31.804 29.92-9.295-9.297a12.529 12.529 0 0 0 2.825-7.951v-.006c0-6.985-5.683-12.667-12.667-12.667C5.682-.001 0 5.682 0 12.666s5.683 12.667 12.667 12.667c3.013 0 5.78-1.062 7.956-2.825l9.297 9.295a.667.667 0 0 0 .942 0l.942-.942a.667.667 0 0 0 0-.942zm-19.137-7.254c-5.514 0-10.001-4.485-10.001-9.999S7.152 2.666 12.667 2.666s9.999 4.486 9.999 10.001-4.485 9.999-9.999 9.999z"/></symbol></defs></svg>