<svg aria-hidden="true" style="width:0;height:0;position:absolute;overflow:hidden" xmlns="http://www.w3.org/2000/svg"><defs><symbol id="drone-logo" viewBox="0 0 69 32"><path d="M34.354 6.07a5.78 5.78 0 0 0-3.887 1.514l2.849 2.848a1.706 1.706 0 0 1 1.034-.346h.004c.384 0 .742.124 1.038.346l2.849-2.848a5.75 5.75 0 0 0-3.885-1.514h-.001z"/><path d="M34.354 0a11.99 11.99 0 0 0-8.218 3.255l2.844 2.843c1.412-1.29 3.3-2.081 5.373-2.081s3.961.79 5.379 2.086l-.006-.006 2.844-2.843a11.947 11.947 0 0 0-8.214-3.255h-.004zm17.075 6.605v4.016h6.563v3.661H10.581v-3.661h6.563V6.605H.001v4.016h6.563V20.68l15.714 4.284v4.76h4.286V32h4.017v-2.277h7.411V32h4.017v-2.277h4.286v-4.759l15.714-4.284V10.621h6.563V6.605H51.429z"/></symbol><symbol id="menu" viewBox="0 0 38 32"><path d="M2.134-.003a2.067 2.067 0 0 0-1.507.66L.626.658a2.327 2.327 0 0 0-.625 1.59v.011-.001c0 .602.224 1.178.625 1.6.399.427.943.664 1.509.664h34.139a2.08 2.08 0 0 0 1.508-.661 2.34 2.34 0 0 0 .625-1.6c0-.602-.224-1.176-.625-1.6a2.07 2.07 0 0 0-1.508-.664H2.135zM0 15.838c0-.6.224-1.174.625-1.6a2.07 2.07 0 0 1 1.508-.661h34.139c.565 0 1.109.237 1.508.661.401.427.625 1.001.625 1.6 0 .602-.224 1.176-.625 1.6a2.068 2.068 0 0 1-1.508.661H2.133a2.067 2.067 0 0 1-1.507-.66l-.001-.001A2.327 2.327 0 0 1 0 15.848v-.011.001zm0 13.579c0-.6.224-1.176.625-1.6a2.07 2.07 0 0 1 1.508-.661h34.139c.565 0 1.109.237 1.508.661.401.425.625 1.001.625 1.6s-.224 1.174-.625 1.6a2.068 2.068 0 0 1-1.508.661H2.133a2.067 2.067 0 0 1-1.507-.66l-.001-.001A2.327 2.327 0 0 1 0 29.427v-.011.001z"/></symbol><symbol id="search" viewBox="0 0 32 32"><path d="m31.804 29.92-9.295-9.297a12.529 12.529 0 0 0 2.825-7.951v-.006c0-6.985-5.683-12.667-12.667-12.667C5.682-.001 0 5.682 0 12.666s5.683 12.667 12.667 12.667c3.013 0 5.78-1.062 7.956-2.825l9.297 9.295a.667.667 0 0 0 .942 0l.942-.942a.667.667 0 0 0 0-.942zm-19.137-7.254c-5.514 0-10.001-4.485-10.001-9.999S7.152 2.666 12.667 2.666s9.999 4.486 9.999 10.001-4.485 9.999-9.999 9.999z"/></symbol><symbol id="battery" viewBox="0 0 52 32"><path d="M41.339.538v5.619h8.988v18.728h-8.988v5.993H.298V.537h41.041zm-2.346 2.625H2.645v25.095h36.348V3.163zm-24.624 1.87-3.175 21.353H4.206V5.035h10.162zm1.302 0-3.257 21.353h10.422l3.257-21.351H15.671zm21.759.002-3.165 21.351H24.141l3.163-21.351H37.43z"/></symbol><symbol id="camera" viewBox="0 0 40 32"><path d="m26.864.143 6.107 6.508h6.105v24.48H0V6.652h6.105L12.212.141h14.653zM3.359 11.079c1.011 0 1.831-.7 1.831-1.563s-.82-1.563-1.831-1.563c-1.012 0-1.832.7-1.832 1.563s.819 1.563 1.832 1.563zm6.105 7.813c0 4.745 4.511 8.593 10.075 8.593s10.073-3.848 10.073-8.595c0-4.747-4.509-8.593-10.073-8.593S9.464 14.144 9.464 18.89zm10.073 5.207c3.373 0 6.107-2.331 6.107-5.208 0-2.876-2.733-5.208-6.105-5.208-3.373 0-6.107 2.332-6.107 5.208 0 2.877 2.733 5.208 6.107 5.208z"/></symbol><symbol id="speed" viewBox="0 0 37 32"><path d="M8.958 6.608c2.164-1.606 4.918-2.649 7.948-2.858V.129C12.689.351 8.864 1.807 5.92 4.077l3.039 2.53zM19.164 3.75V.129c3.963.209 7.582 1.506 10.446 3.547L26.64 6.27c-2.086-1.415-4.662-2.326-7.476-2.521zm9.124 3.84L31.249 5c2.772 2.535 4.554 5.867 4.82 9.55h-4.246c-.252-2.671-1.547-5.089-3.536-6.961zm3.441 17.982c2.498-2.474 4.091-5.63 4.341-9.095h-4.246c-.234 2.486-1.372 4.753-3.134 6.565l3.04 2.529zm-1.578 1.378-3.039-2.53c-2.164 1.606-4.917 2.647-7.948 2.855v3.623c4.217-.222 8.043-1.678 10.987-3.948zm-13.245 3.948v-3.622c-3.013-.208-5.753-1.238-7.911-2.83l-2.962 2.59c2.929 2.222 6.711 3.643 10.874 3.862zm-12.465-5.23 2.97-2.594c-1.777-1.817-2.928-4.097-3.164-6.597H.001c.254 3.513 1.886 6.705 4.441 9.193zM0 14.551h4.246c.235-2.486 1.372-4.753 3.134-6.564L4.341 5.455C1.844 7.929.251 11.083 0 14.55zm25.81-3.643-8.041 7.745-.01-.012a2.26 2.26 0 0 1-.208.149l-.01.006c-1.13.709-2.72.505-3.553-.46-.832-.964-.591-2.321.539-3.031.078-.048.156-.092.238-.132l-.01-.011 11.055-4.254z"/></symbol><symbol id="storage" viewBox="0 0 37 32"><path d="M20.289.154V7.1h-3.945V.149L13.526.147v6.955H9.581V.142L6.763.14V7.1H2.818V.134L0 .13v30.769h36.07V6.44L23.953.159 20.289.154zM3.102 12.387h25.361v14.425H3.102V12.387z"/></symbol></defs></svg>