<svg aria-hidden="true" style="position: absolute; width: 0; height: 0; overflow: hidden;" version="1.1" xmlns="http://www.w3.org/2000/svg" xmlns:xlink="http://www.w3.org/1999/xlink">
<defs>


<symbol id="drone-logo" viewBox="0 0 69 32">
<path  d="M34.354 6.070c-1.447 0-2.834 0.553-3.887 1.514l2.849 2.848c0.284-0.216 0.644-0.346 1.034-0.346 0.001 0 0.002 0 0.004 0h-0c0.384 0 0.742 0.124 1.038 0.346l2.849-2.848c-1.021-0.936-2.386-1.511-3.885-1.514h-0.001z"></path>
<path  d="M34.354 0c-3.072 0-6.001 1.172-8.218 3.255l2.844 2.843c1.412-1.29 3.3-2.081 5.373-2.081s3.961 0.79 5.379 2.086l-0.006-0.006 2.844-2.843c-2.141-2.016-5.033-3.255-8.214-3.255-0.001 0-0.003 0-0.004 0h0zM51.429 6.605v4.016h6.563v3.661h-47.411v-3.661h6.563v-4.016h-17.143v4.016h6.563v10.059l15.714 4.284v4.76h4.286v2.276h4.017v-2.277h7.411v2.277h4.017v-2.277h4.286v-4.759l15.714-4.284v-10.059h6.563v-4.016h-17.143z"></path>
</symbol>
<symbol id="menu" viewBox="0 0 38 32">
<path  d="M2.134-0.003c-0.595 0.003-1.131 0.256-1.507 0.66l-0.001 0.001c-0.387 0.416-0.625 0.975-0.625 1.59 0 0.004 0 0.007 0 0.011v-0.001c0 0.602 0.224 1.178 0.625 1.6 0.399 0.427 0.943 0.664 1.509 0.664h34.139c0.565 0 1.109-0.239 1.508-0.661 0.401-0.427 0.625-1.003 0.625-1.6 0-0.602-0.224-1.176-0.625-1.6-0.377-0.406-0.913-0.66-1.508-0.664h-34.139zM0 15.838c0-0.6 0.224-1.174 0.625-1.6 0.378-0.405 0.913-0.658 1.508-0.661h34.139c0.565 0 1.109 0.237 1.508 0.661 0.401 0.427 0.625 1.001 0.625 1.6 0 0.602-0.224 1.176-0.625 1.6-0.377 0.405-0.913 0.658-1.508 0.661h-34.139c-0.595-0.003-1.131-0.256-1.507-0.66l-0.001-0.001c-0.387-0.416-0.625-0.975-0.625-1.59 0-0.004 0-0.007 0-0.011v0.001zM0 29.417c0-0.6 0.224-1.176 0.625-1.6 0.378-0.405 0.913-0.658 1.508-0.661h34.139c0.565 0 1.109 0.237 1.508 0.661 0.401 0.425 0.625 1.001 0.625 1.6s-0.224 1.174-0.625 1.6c-0.377 0.405-0.913 0.658-1.508 0.661h-34.139c-0.595-0.003-1.131-0.256-1.507-0.66l-0.001-0.001c-0.387-0.416-0.625-0.975-0.625-1.59 0-0.004 0-0.007 0-0.011v0.001z"></path>
</symbol>
<symbol id="search" viewBox="0 0 32 32">
<path  d="M31.804 29.92l-9.295-9.297c1.759-2.15 2.825-4.926 2.825-7.951 0-0.002 0-0.004 0-0.006v0c0-6.985-5.683-12.667-12.667-12.667-6.985 0-12.667 5.683-12.667 12.667s5.683 12.667 12.667 12.667c3.013 0 5.78-1.062 7.956-2.825l9.297 9.295c0.121 0.12 0.287 0.195 0.471 0.195s0.35-0.074 0.471-0.195v0l0.942-0.942c0.12-0.121 0.195-0.287 0.195-0.471s-0.074-0.35-0.195-0.471v0zM12.667 22.666c-5.514 0-10.001-4.485-10.001-9.999s4.486-10.001 10.001-10.001 9.999 4.486 9.999 10.001-4.485 9.999-9.999 9.999z"></path>
</symbol>
</defs>
</svg>
