<svg aria-hidden="true" style="position: absolute; width: 0; height: 0; overflow: hidden;" version="1.1" xmlns="http://www.w3.org/2000/svg" xmlns:xlink="http://www.w3.org/1999/xlink">
<defs>

<symbol id="battery" viewBox="0 0 52 32">
<path d="M41.339 0.538v5.619h8.988v18.728h-8.988v5.993h-41.041v-30.341h41.041zM38.993 3.163h-36.348v25.095h36.348v-25.095zM14.369 5.033l-3.175 21.353h-6.988v-21.351h10.162zM15.671 5.033l-3.257 21.353h10.422l3.257-21.351h-10.422zM37.43 5.035l-3.165 21.351h-10.124l3.163-21.351h10.126z"></path>
</symbol>
<symbol id="camera" viewBox="0 0 40 32">
<path d="M26.864 0.143l6.107 6.508h6.105v24.48h-39.076v-24.479h6.105l6.107-6.511h14.653zM3.359 11.079c1.011 0 1.831-0.7 1.831-1.563s-0.82-1.563-1.831-1.563c-1.012 0-1.832 0.7-1.832 1.563s0.819 1.563 1.832 1.563zM9.464 18.892c0 4.745 4.511 8.593 10.075 8.593s10.073-3.848 10.073-8.595c0-4.747-4.509-8.593-10.073-8.593s-10.075 3.847-10.075 8.593zM19.537 24.099c3.373 0 6.107-2.331 6.107-5.208 0-2.876-2.733-5.208-6.105-5.208-3.373 0-6.107 2.332-6.107 5.208 0 2.877 2.733 5.208 6.107 5.208z"></path>
</symbol>
<symbol id="speed" viewBox="0 0 37 32">
<path d="M8.958 6.608c2.164-1.606 4.918-2.649 7.948-2.858v-3.621c-4.217 0.222-8.042 1.678-10.986 3.948l3.039 2.53zM19.164 3.75v-3.621c3.963 0.209 7.582 1.506 10.446 3.547l-2.97 2.594c-2.086-1.415-4.662-2.326-7.476-2.521zM28.288 7.59l2.961-2.59c2.772 2.535 4.554 5.867 4.82 9.55h-4.246c-0.252-2.671-1.547-5.089-3.536-6.961zM31.729 25.572c2.498-2.474 4.091-5.63 4.341-9.095h-4.246c-0.234 2.486-1.372 4.753-3.134 6.565l3.040 2.529zM30.151 26.95l-3.039-2.53c-2.164 1.606-4.917 2.647-7.948 2.855v3.623c4.217-0.222 8.043-1.678 10.987-3.948zM16.906 30.898v-3.622c-3.013-0.208-5.753-1.238-7.911-2.83l-2.962 2.59c2.929 2.222 6.711 3.643 10.874 3.862zM4.441 25.668l2.97-2.594c-1.777-1.817-2.928-4.097-3.164-6.597h-4.246c0.254 3.513 1.886 6.705 4.441 9.193zM0 14.551h4.246c0.235-2.486 1.372-4.753 3.134-6.564l-3.039-2.532c-2.497 2.474-4.090 5.628-4.341 9.095zM25.81 10.908l-8.041 7.745-0.010-0.012c-0.063 0.051-0.134 0.102-0.208 0.149l-0.010 0.006c-1.13 0.709-2.72 0.505-3.553-0.46-0.832-0.964-0.591-2.321 0.539-3.031 0.078-0.048 0.156-0.092 0.238-0.132l-0.010-0.011 11.055-4.254z"></path>
</symbol>
<symbol id="storage" viewBox="0 0 37 32">
<path d="M20.289 0.154v6.946h-3.945v-6.951l-2.818-0.002v6.955h-3.945v-6.96l-2.818-0.002v6.96h-3.945v-6.966l-2.818-0.004v30.769h36.070v-24.459l-12.117-6.281-3.664-0.005zM3.102 12.387h25.361v14.425h-25.361v-14.425z"></path>
</symbol>


</defs>
</svg>
